Coordinates
version=1
nRows=43
nColumns=12
inDegrees=yes

Units are S.I. units (second, meters, Newtons, ...)
Angles are in degrees

endheader
time	SC_y	SC_z	SC_x	AC_y	AC_z	AC_x	GH_y	GH_z	GH_yy	EL_x	PS_y
       0.0               -55.9          1.371          13.33          60.02        -0.9158          9.057          68.39          7.539         -137.1          59.21          46.02
   0.01996               -55.9          1.373          13.34          60.02        -0.9153          9.055          68.39          7.546         -137.1          59.21          46.03
   0.03992               -55.9          1.375          13.34          60.01        -0.9148          9.053          68.39          7.552         -137.0          59.21          46.03
   0.05989               -55.9          1.377          13.35          60.01        -0.9142          9.051          68.39          7.559         -137.0          59.21          46.03
   0.07985               -55.9          1.379          13.36           60.0        -0.9135          9.049          68.39          7.566         -137.0          59.21          46.04
   0.09981               -55.9          1.382          13.37           60.0        -0.9129          9.047          68.39          7.574         -137.0          59.21          46.04
    0.1198               -55.9          1.384          13.38          59.99        -0.9121          9.044          68.38          7.583         -136.9          59.21          46.04
    0.1397               -55.9          1.387          13.39          59.99        -0.9114          9.041          68.38          7.592         -136.9          59.21          46.05
    0.1597               -55.9           1.39           13.4          59.98        -0.9106          9.038          68.38          7.601         -136.9          59.21          46.05
    0.1797              -55.91          1.393          13.41          59.98        -0.9097          9.035          68.38          7.612         -136.9          59.21          46.06
    0.1996              -55.91          1.397          13.43          59.97        -0.9087          9.032          68.38          7.623         -136.8          59.21          46.06
    0.2196              -55.91            1.4          13.44          59.96        -0.9077          9.028          68.38          7.635         -136.8          59.21          46.07
    0.2395              -55.91          1.404          13.45          59.96        -0.9066          9.025          68.37          7.647         -136.7          59.21          46.08
    0.2595              -55.91          1.409          13.47          59.95        -0.9054           9.02          68.37          7.661         -136.7          59.21          46.08
    0.2795              -55.91          1.413          13.49          59.94        -0.9041          9.016          68.37          7.676         -136.7          59.21          46.09
    0.2994              -55.91          1.419          13.51          59.93        -0.9027          9.011          68.37          7.693         -136.6          59.21           46.1
    0.3194              -55.91          1.424          13.53          59.92        -0.9012          9.006          68.36           7.71         -136.5          59.21          46.11
    0.3394              -55.91           1.43          13.55          59.91        -0.8996            9.0          68.36           7.73         -136.5          59.21          46.11
    0.3593              -55.91          1.437          13.57          59.89        -0.8978          8.994          68.35          7.751         -136.4          59.21          46.12
    0.3793              -55.91          1.444           13.6          59.88        -0.8958          8.987          68.35          7.774         -136.3          59.21          46.14
    0.3992              -55.91          1.452          13.63          59.87        -0.8937          8.979          68.35          7.799         -136.3          59.21          46.15
    0.4192              -55.91          1.461          13.66          59.85        -0.8913          8.971          68.34          7.827         -136.2          59.21          46.16
    0.4392              -55.92           1.47           13.7          59.83        -0.8886          8.961          68.34          7.858         -136.1          59.21          46.18
    0.4591              -55.92          1.481          13.74          59.81        -0.8857          8.951          68.33          7.892         -136.0          59.21          46.19
    0.4791              -55.92          1.493          13.78          59.79        -0.8825           8.94          68.32           7.93         -135.9          59.21          46.21
    0.4991              -55.92          1.506          13.83          59.76        -0.8789          8.927          68.32          7.972         -135.7          59.21          46.23
     0.519              -55.92          1.521          13.88          59.73        -0.8748          8.913          68.31          8.019         -135.6          59.21          46.25
     0.539              -55.93          1.538          13.95           59.7        -0.8703          8.897           68.3          8.073         -135.4          59.21          46.28
    0.5589              -55.93          1.557          14.02          59.67        -0.8651          8.879          68.29          8.133         -135.2          59.21          46.31
    0.5789              -55.93          1.578          14.09          59.63        -0.8593          8.858          68.27          8.201         -135.0          59.21          46.34
    0.5989              -55.93          1.602          14.18          59.58        -0.8526          8.835          68.26           8.28         -134.8          59.21          46.38
    0.6188              -55.94          1.631          14.29          59.53        -0.8449          8.808          68.24          8.369         -134.5          59.21          46.42
    0.6388              -55.94          1.663          14.41          59.47        -0.8361          8.777          68.23          8.473         -134.2          59.21          46.47
    0.6588              -55.95          1.701          14.55          59.39        -0.8258           8.74          68.21          8.593         -133.8          59.22          46.53
    0.6787              -55.95          1.745          14.71          59.31        -0.8138          8.698          68.18          8.733         -133.3          59.22           46.6
    0.6987              -55.96          1.797           14.9          59.21        -0.7996          8.648          68.15          8.899         -132.8          59.22          46.68
    0.7186              -55.97          1.858          15.13          59.09        -0.7828          8.589          68.12          9.096         -132.2          59.22          46.77
    0.7386              -55.98          1.932           15.4          58.95        -0.7626          8.518          68.07          9.332         -131.4          59.22          46.89
    0.7586              -55.99          2.022          15.73          58.78        -0.7382          8.432          68.02          9.618         -130.5          59.22          47.02
    0.7785              -56.01          2.131          16.13          58.58        -0.7084          8.327          67.96          9.967         -129.4          59.22          47.19
    0.7985              -56.03          2.266          16.63          58.32        -0.6715          8.198          67.88           10.4         -128.1          59.23           47.4
    0.8185              -56.05          2.434          17.25           58.0        -0.6256          8.036          67.79          10.94         -126.4          59.23          47.66
    0.8384              -56.08          2.646          18.04           57.6        -0.5678          7.833          67.67          11.61         -124.3          59.23          47.98
